<svg width="375" height="315" viewBox="0 0 375 315" fill="none" xmlns="http://www.w3.org/2000/svg">
<path d="M398 276.558H-24V276.769H398V276.558Z" fill="#EBEBEB"/>
<path d="M355.716 290.138H337.418V290.349H355.716V290.138Z" fill="#EBEBEB"/>
<path d="M266.902 285.766H238.113V285.977H266.902V285.766Z" fill="#EBEBEB"/>
<path d="M348.305 282.306H310.722V282.517H348.305V282.306Z" fill="#EBEBEB"/>
<path d="M122.029 286.559H112.627V286.77H122.029V286.559Z" fill="#EBEBEB"/>
<path d="M105.107 286.559H72.7056V286.77H105.107V286.559Z" fill="#EBEBEB"/>
<path d="M55.3445 282.998H31.9657V283.209H55.3445V282.998Z" fill="#EBEBEB"/>
<path d="M176.028 238.916H13.0599C11.7833 238.913 10.5596 238.405 9.65768 237.501C8.75573 236.598 8.24914 235.373 8.24915 234.096V5.00943C8.26026 3.74008 8.77174 2.52637 9.6725 1.63193C10.5733 0.73749 11.7905 0.234566 13.0599 0.232391H176.028C177.306 0.232391 178.532 0.740131 179.436 1.64391C180.339 2.5477 180.847 3.77349 180.847 5.05163V234.096C180.847 235.374 180.339 236.6 179.436 237.504C178.532 238.408 177.306 238.916 176.028 238.916V238.916ZM13.0599 0.401192C11.8392 0.403428 10.6693 0.889922 9.80688 1.75389C8.9445 2.61786 8.46014 3.78871 8.46015 5.00943V234.096C8.46014 235.317 8.9445 236.488 9.80688 237.352C10.6693 238.216 11.8392 238.702 13.0599 238.705H176.028C177.249 238.702 178.42 238.216 179.284 237.352C180.148 236.489 180.634 235.318 180.636 234.096V5.00943C180.634 3.78794 180.148 2.61711 179.284 1.75338C178.42 0.889648 177.249 0.403423 176.028 0.401192H13.0599Z" fill="#EBEBEB"/>
<path d="M358.594 238.916H195.617C194.34 238.913 193.115 238.405 192.212 237.502C191.309 236.598 190.8 235.374 190.798 234.096V5.00943C190.811 3.73931 191.325 2.5256 192.227 1.6314C193.129 0.737195 194.347 0.234542 195.617 0.232391H358.594C359.862 0.236784 361.077 0.74069 361.976 1.63489C362.875 2.52909 363.385 3.74153 363.396 5.00943V234.096C363.396 235.372 362.891 236.595 361.99 237.498C361.09 238.401 359.869 238.911 358.594 238.916V238.916ZM195.617 0.401192C194.396 0.403423 193.225 0.889648 192.361 1.75338C191.497 2.61711 191.011 3.78794 191.009 5.00943V234.096C191.011 235.318 191.497 236.489 192.361 237.352C193.225 238.216 194.396 238.702 195.617 238.705H358.594C359.815 238.702 360.986 238.216 361.85 237.352C362.713 236.489 363.2 235.318 363.202 234.096V5.00943C363.2 3.78794 362.713 2.61711 361.85 1.75338C360.986 0.889648 359.815 0.403423 358.594 0.401192H195.617Z" fill="#EBEBEB"/>
<path d="M73.0601 101.2C77.7406 101.2 82.2295 99.3408 85.5391 96.0311C88.8488 92.7215 90.7081 88.2326 90.7081 83.5521C90.7081 78.8715 88.8488 74.3827 85.5391 71.073C82.2295 67.7634 77.7406 65.904 73.0601 65.904H70.891V101.2H73.0601Z" fill="#E0E0E0"/>
<path d="M70.874 101.2C80.6207 101.2 88.522 93.2988 88.522 83.5521C88.522 73.8053 80.6207 65.904 70.874 65.904C61.1273 65.904 53.226 73.8053 53.226 83.5521C53.226 93.2988 61.1273 101.2 70.874 101.2Z" fill="#F5F5F5"/>
<path d="M70.0638 85.7633C63.7962 85.7633 57.7853 83.2735 53.3534 78.8417C48.9216 74.4098 46.4318 68.3989 46.4318 62.1313V48.0281C46.4318 47.4394 46.6656 46.8748 47.0819 46.4585C47.4982 46.0422 48.0628 45.8084 48.6515 45.8084C49.2402 45.8084 49.8048 46.0422 50.2211 46.4585C50.6373 46.8748 50.8712 47.4394 50.8712 48.0281V62.1398C50.8757 67.2271 52.898 72.105 56.4945 75.703C60.091 79.3011 64.968 81.3256 70.0553 81.3323C70.3578 81.3137 70.6608 81.3571 70.9459 81.46C71.2309 81.5629 71.4918 81.7231 71.7126 81.9306C71.9333 82.1382 72.1093 82.3887 72.2295 82.6669C72.3498 82.945 72.4119 83.2448 72.4119 83.5478C72.4119 83.8509 72.3498 84.1507 72.2295 84.4288C72.1093 84.7069 71.9333 84.9575 71.7126 85.1651C71.4918 85.3726 71.2309 85.5328 70.9459 85.6357C70.6608 85.7386 70.3578 85.782 70.0553 85.7633H70.0638Z" fill="#E0E0E0"/>
<path d="M29.0285 60.4518H68.2914C68.9193 60.4519 69.5389 60.3079 70.1023 60.0307C70.6658 59.7536 71.1581 59.3509 71.5413 58.8535C71.9246 58.3561 72.1885 57.7773 72.3128 57.1618C72.4371 56.5463 72.4184 55.9105 72.2582 55.3034L68.84 42.4324C68.6093 41.558 68.0961 40.7844 67.3802 40.2318C66.6643 39.6793 65.7859 39.3788 64.8816 39.3771H32.4383C31.5329 39.3784 30.6533 39.6786 29.936 40.231C29.2187 40.7835 28.7039 41.5573 28.4715 42.4324L25.0955 55.2865C24.9312 55.8921 24.9083 56.5274 25.0286 57.1432C25.1489 57.7591 25.4091 58.339 25.7893 58.8382C26.1694 59.3375 26.6592 59.7426 27.2209 60.0224C27.7826 60.3022 28.401 60.4491 29.0285 60.4518V60.4518Z" fill="#F5F5F5"/>
<path d="M322.276 101.2C326.957 101.2 331.446 99.3408 334.755 96.0311C338.065 92.7215 339.924 88.2326 339.924 83.5521C339.924 78.8715 338.065 74.3827 334.755 71.073C331.446 67.7634 326.957 65.904 322.276 65.904H320.107V101.2H322.276Z" fill="#E0E0E0"/>
<path d="M320.107 101.2C329.854 101.2 337.755 93.2988 337.755 83.5521C337.755 73.8053 329.854 65.904 320.107 65.904C310.361 65.904 302.459 73.8053 302.459 83.5521C302.459 93.2988 310.361 101.2 320.107 101.2Z" fill="#F5F5F5"/>
<path d="M319.297 85.7633C313.029 85.7633 307.019 83.2735 302.587 78.8417C298.155 74.4098 295.665 68.3989 295.665 62.1313V48.0281C295.665 47.4394 295.899 46.8748 296.315 46.4585C296.731 46.0422 297.296 45.8084 297.885 45.8084C298.473 45.8084 299.038 46.0422 299.454 46.4585C299.871 46.8748 300.104 47.4394 300.104 48.0281V62.1398C300.109 67.2271 302.131 72.105 305.728 75.703C309.324 79.3011 314.201 81.3256 319.289 81.3323C319.591 81.3137 319.894 81.3571 320.179 81.46C320.464 81.5629 320.725 81.7231 320.946 81.9306C321.167 82.1382 321.343 82.3887 321.463 82.6669C321.583 82.945 321.645 83.2448 321.645 83.5478C321.645 83.8509 321.583 84.1507 321.463 84.4288C321.343 84.7069 321.167 84.9575 320.946 85.1651C320.725 85.3726 320.464 85.5328 320.179 85.6357C319.894 85.7386 319.591 85.782 319.289 85.7633H319.297Z" fill="#E0E0E0"/>
<path d="M278.262 60.4517H317.525C318.152 60.4519 318.772 60.3078 319.335 60.0307C319.899 59.7536 320.391 59.3508 320.775 58.8534C321.158 58.356 321.422 57.7773 321.546 57.1618C321.67 56.5463 321.652 55.9105 321.491 55.3033L318.115 42.4492C317.885 41.5749 317.371 40.8012 316.656 40.2487C315.94 39.6961 315.061 39.3957 314.157 39.394H281.671C280.766 39.3952 279.886 39.6954 279.169 40.2479C278.452 40.8003 277.937 41.5742 277.705 42.4492L274.329 55.3033C274.167 55.9078 274.147 56.5413 274.269 57.1549C274.39 57.7686 274.651 58.3462 275.031 58.8434C275.411 59.3405 275.899 59.744 276.459 60.0228C277.02 60.3016 277.636 60.4484 278.262 60.4517V60.4517Z" fill="#F5F5F5"/>
<path d="M89.0791 220.398H101.916V170.661H89.0791V220.398Z" fill="#E6E6E6"/>
<path d="M54.281 220.39H96.8777L103.309 162.179H60.7123L54.281 220.39Z" fill="#F0F0F0"/>
<path d="M49.6643 220.39H93.6705L100.102 162.179H56.104L49.6643 220.39Z" fill="#F5F5F5"/>
<path d="M90.4886 215.807L95.9071 166.77H59.2775L53.859 215.807H90.4886Z" fill="white"/>
<path d="M82.9263 203.915L83.1879 201.948C84.5468 189.643 76.8664 178.679 66.8903 178.679L66.6624 180.68C65.3036 192.977 72.984 203.94 82.9685 203.94L82.9263 203.915Z" fill="#F5F5F5"/>
<path d="M25.872 276.558H63.7169L63.7169 220.39H25.872L25.872 276.558Z" fill="#E6E6E6"/>
<path d="M29.67 276.558H25.8635V265.729H33.6621L29.67 276.558Z" fill="#F0F0F0"/>
<path d="M131.937 276.558H169.782V220.39H131.937V276.558Z" fill="#E6E6E6"/>
<path d="M25.8636 269.916H135.254V220.398H25.8636V269.916Z" fill="#F0F0F0"/>
<path d="M131.448 276.558H135.254V265.729H127.456L131.448 276.558Z" fill="#F0F0F0"/>
<path d="M28.8176 243.473H132.3V223.487H28.8176V243.473Z" fill="#E6E6E6"/>
<path d="M73.6592 236.552H87.4586C90.4255 236.554 93.3615 235.949 96.0868 234.777C98.8122 233.604 101.27 231.888 103.309 229.733H57.8088C59.8489 231.887 62.3066 233.602 65.0318 234.775C67.7569 235.947 70.6925 236.552 73.6592 236.552V236.552Z" fill="#F0F0F0"/>
<path d="M28.8176 266.683H132.3V246.697H28.8176V266.683Z" fill="#E6E6E6"/>
<path d="M73.6592 259.729H87.4586C90.4255 259.73 93.3615 259.126 96.0868 257.953C98.8122 256.78 101.27 255.064 103.309 252.909H57.8088C59.8489 255.063 62.3066 256.779 65.0318 257.951C67.7569 259.124 70.6925 259.728 73.6592 259.729V259.729Z" fill="#F0F0F0"/>
<path d="M128.325 218.103H129.304C129.304 216.085 129.304 210.979 129.406 199.273C129.583 178.046 129.92 176.755 129.92 176.755L127.591 186.554C126.114 197.399 128.021 208.304 128.325 218.103Z" fill="#E6E6E6"/>
<path d="M126.392 185.068C123.016 181.076 115.885 179.912 108.559 178.916C105.681 178.527 116.112 185.102 121.219 189.769C125.185 193.399 127.717 194.403 128.815 198.015C129.372 193.508 129.279 188.537 126.392 185.068Z" fill="#E6E6E6"/>
<path d="M130.84 192.225C134.216 188.233 141.348 187.077 148.674 186.081C151.552 185.693 141.078 192.268 136.014 196.935C132.047 200.564 129.515 201.569 128.418 205.181C127.861 200.674 127.92 195.669 130.84 192.225Z" fill="#E6E6E6"/>
<path d="M129.405 175.784C131.937 171.007 138.234 166.5 145.332 164.812C148.117 164.146 138.875 173.624 135.364 179.743C132.638 184.486 129.026 190.073 128.46 194.091C127.616 186.174 126.89 180.587 129.405 175.784Z" fill="#E6E6E6"/>
<path d="M129.102 220.39C126.114 220.39 123.641 218.896 123.464 216.972L122.966 213.697H135.246L134.739 216.972C134.571 218.896 132.14 220.39 129.102 220.39Z" fill="#F0F0F0"/>
<path d="M136.039 214.954H122.172L121.776 211.3H136.436L136.039 214.954Z" fill="#F0F0F0"/>
<path d="M119.092 145.164L254.309 145.164L254.309 21.8303L119.092 21.8303L119.092 145.164Z" fill="#E6E6E6"/>
<path d="M116.053 145.164L252.984 145.164L252.984 21.8303L116.053 21.8303L116.053 145.164Z" fill="#F5F5F5"/>
<path d="M247.515 139.644V27.3585L121.506 27.3585V139.644H247.515Z" fill="#FAFAFA"/>
<path d="M232.061 139.644L182.468 27.3585H165.622L215.215 139.644H232.061Z" fill="white"/>
<path d="M210.438 139.644L160.844 27.3585H149.248L198.841 139.644H210.438Z" fill="white"/>
<path d="M168.297 139.636V27.3501H161.781V139.636H168.297Z" fill="#E6E6E6"/>
<path d="M211.611 139.636V27.3501H205.095V139.636H211.611Z" fill="#E6E6E6"/>
<path d="M167.124 143.147V23.2483H158.886V143.147H167.124Z" fill="#F5F5F5"/>
<path d="M210.438 143.147V23.2483H202.201V143.147H210.438Z" fill="#F5F5F5"/>
<path d="M122.096 139.644V27.3586H121.514V139.644H122.096Z" fill="#E6E6E6"/>
<path d="M113.758 14.7238H260.242C260.43 14.726 260.609 14.8014 260.741 14.9339C260.874 15.0664 260.949 15.2455 260.951 15.4328C260.949 15.6194 260.873 15.7975 260.741 15.9287C260.608 16.0598 260.429 16.1333 260.242 16.1333H113.758C113.571 16.1333 113.392 16.0598 113.259 15.9287C113.127 15.7975 113.051 15.6194 113.049 15.4328V15.4328C113.051 15.2455 113.126 15.0664 113.259 14.9339C113.391 14.8014 113.57 14.726 113.758 14.7238Z" fill="#E6E6E6"/>
<path d="M254.309 19.3743C254.56 19.3721 254.801 19.2706 254.978 19.092C255.155 18.9134 255.254 18.6721 255.254 18.4206V16.3781C255.255 16.2533 255.232 16.1294 255.185 16.0138C255.138 15.8981 255.068 15.7929 254.98 15.7042C254.892 15.6155 254.788 15.5452 254.673 15.4971C254.557 15.4491 254.434 15.4244 254.309 15.4244V15.4244C254.057 15.4244 253.816 15.5237 253.638 15.7007C253.459 15.8778 253.357 16.1182 253.355 16.3697V18.4121C253.355 18.6659 253.455 18.9093 253.634 19.0895C253.813 19.2697 254.055 19.3721 254.309 19.3743V19.3743Z" fill="#E6E6E6"/>
<path d="M124.375 19.3743C124.628 19.3721 124.869 19.2709 125.047 19.0925C125.226 18.9141 125.327 18.6728 125.329 18.4206V16.3781C125.329 16.1252 125.228 15.8826 125.05 15.7037C124.871 15.5249 124.628 15.4244 124.375 15.4244V15.4244C124.125 15.4244 123.884 15.524 123.707 15.7012C123.53 15.8785 123.43 16.119 123.43 16.3697V18.4121C123.429 18.5374 123.452 18.6616 123.499 18.7778C123.546 18.8939 123.616 18.9997 123.703 19.089C123.791 19.1783 123.896 19.2495 124.011 19.2985C124.126 19.3474 124.25 19.3732 124.375 19.3743Z" fill="#E6E6E6"/>
<path opacity="0.6" d="M113.977 112.012L250.815 112.012V15.4244L113.977 15.4244V112.012Z" fill="#E0E0E0"/>
<path d="M263.205 173.227H239.607C237.099 173.227 235.066 175.26 235.066 177.768V188.689C235.066 191.197 237.099 193.23 239.607 193.23H263.205C265.713 193.23 267.746 191.197 267.746 188.689V177.768C267.746 175.26 265.713 173.227 263.205 173.227Z" fill="#FAFAFA"/>
<path d="M266.218 169.53H236.594C235.75 169.53 235.066 170.214 235.066 171.058V172.29C235.066 173.134 235.75 173.818 236.594 173.818H266.218C267.062 173.818 267.746 173.134 267.746 172.29V171.058C267.746 170.214 267.062 169.53 266.218 169.53Z" fill="#E6E6E6"/>
<path d="M235.547 215.452C235.547 215.452 235.977 229.522 252.368 229.522C268.758 229.522 269.189 215.452 269.189 215.452H235.547Z" fill="#F0F0F0"/>
<path d="M272.919 215.452C272.919 215.452 273.35 229.522 289.74 229.522C306.131 229.522 306.561 215.452 306.561 215.452H272.919Z" fill="#F0F0F0"/>
<path d="M298.442 164.171H266.032C262.583 164.171 259.787 166.967 259.787 170.417V186.993C259.787 190.442 262.583 193.238 266.032 193.238H298.442C301.891 193.238 304.687 190.442 304.687 186.993V170.417C304.687 166.967 301.891 164.171 298.442 164.171Z" fill="#F0F0F0"/>
<path d="M302.594 159.09H261.88C260.724 159.09 259.787 160.027 259.787 161.183V162.888C259.787 164.044 260.724 164.981 261.88 164.981H302.594C303.75 164.981 304.687 164.044 304.687 162.888V161.183C304.687 160.027 303.75 159.09 302.594 159.09Z" fill="#F5F5F5"/>
<path d="M223.199 276.558H227.453V206.81H223.199V276.558Z" fill="#E6E6E6"/>
<path d="M346.027 193.23H322.994V206.801H346.027V193.23Z" fill="#E6E6E6"/>
<path d="M208.471 206.81H322.985V193.238H208.471V206.81Z" fill="#F5F5F5"/>
<path d="M346.027 229.48H322.994V243.051H346.027V229.48Z" fill="#E6E6E6"/>
<path d="M208.471 243.051H322.985V229.48H208.471V243.051Z" fill="#F5F5F5"/>
<path d="M337.713 276.558H341.967V206.81H337.713V276.558Z" fill="#E6E6E6"/>
<path d="M318.74 276.558H322.994V206.81H318.74V276.558Z" fill="#F5F5F5"/>
<path d="M208.471 276.558H212.725V206.81H208.471V276.558Z" fill="#F5F5F5"/>
<path d="M187 314.673C277.378 314.673 350.643 310.395 350.643 305.119C350.643 299.842 277.378 295.565 187 295.565C96.6224 295.565 23.3568 299.842 23.3568 305.119C23.3568 310.395 96.6224 314.673 187 314.673Z" fill="#F5F5F5"/>
<path d="M195.786 262.294H88.117C86.3856 262.27 84.7275 261.592 83.4753 260.396C82.223 259.2 81.4692 257.575 81.365 255.846L71.7096 68.8581C71.6561 68.0263 71.775 67.1925 72.0588 66.4088C72.3426 65.6252 72.7852 64.9086 73.3589 64.304C73.9326 63.6994 74.6249 63.2198 75.3926 62.8954C76.1603 62.5709 76.9868 62.4085 77.8202 62.4183H185.489C187.22 62.4408 188.878 63.1172 190.13 64.3117C191.383 65.5062 192.137 67.1304 192.241 68.8581L201.88 255.846C201.933 256.677 201.815 257.51 201.532 258.293C201.249 259.076 200.808 259.792 200.237 260.397C199.665 261.002 198.975 261.483 198.209 261.809C197.443 262.136 196.618 262.301 195.786 262.294V262.294Z" fill="#013D7E"/>
<path opacity="0.8" d="M195.786 262.294H88.117C86.3856 262.27 84.7275 261.592 83.4753 260.396C82.223 259.2 81.4692 257.575 81.365 255.846L71.7096 68.8581C71.6561 68.0263 71.775 67.1925 72.0588 66.4088C72.3426 65.6252 72.7852 64.9086 73.3589 64.304C73.9326 63.6994 74.6249 63.2198 75.3926 62.8954C76.1603 62.5709 76.9868 62.4085 77.8202 62.4183H185.489C187.22 62.4408 188.878 63.1172 190.13 64.3117C191.383 65.5062 192.137 67.1304 192.241 68.8581L201.88 255.846C201.933 256.677 201.815 257.51 201.532 258.293C201.249 259.076 200.808 259.792 200.237 260.397C199.665 261.002 198.975 261.483 198.209 261.809C197.443 262.136 196.618 262.301 195.786 262.294V262.294Z" fill="white"/>
<path d="M174.863 56.3246H162.954V57.1686H174.863V56.3246Z" fill="#013D7E"/>
<path d="M158.827 56.3246H154.464V57.1686H158.827V56.3246Z" fill="#013D7E"/>
<path d="M200.42 250.428H97.4517C95.7935 250.412 94.203 249.768 93.0004 248.627C91.7977 247.485 91.0721 245.93 90.9698 244.275L81.7533 65.4314C81.7021 64.6354 81.8159 63.8374 82.0875 63.0875C82.3592 62.3376 82.7829 61.6519 83.3321 61.0734C83.8813 60.4949 84.544 60.0361 85.2788 59.7258C86.0136 59.4155 86.8046 59.2604 87.6022 59.2702H190.57C192.228 59.2885 193.818 59.9343 195.019 61.0774C196.22 62.2206 196.943 63.7763 197.044 65.4314L206.26 244.275C206.311 245.07 206.198 245.867 205.927 246.616C205.655 247.365 205.232 248.049 204.684 248.627C204.135 249.205 203.474 249.663 202.74 249.973C202.006 250.283 201.216 250.438 200.42 250.428Z" fill="#013D7E"/>
<path d="M200.42 246.317H97.4517C96.8478 246.297 96.2726 246.055 95.8354 245.638C95.3981 245.221 95.1293 244.658 95.08 244.056L85.8551 65.2204C85.8342 64.9825 85.864 64.7429 85.9426 64.5174C86.0212 64.2919 86.1467 64.0856 86.3109 63.9122C86.4755 63.7392 86.675 63.6031 86.8961 63.5129C87.1173 63.4227 87.3551 63.3804 87.5937 63.3889H190.562C191.164 63.4117 191.737 63.6544 192.173 64.0713C192.608 64.4881 192.876 65.05 192.925 65.6508L202.192 244.486C202.212 244.723 202.182 244.962 202.104 245.186C202.026 245.411 201.901 245.616 201.737 245.789C201.574 245.962 201.376 246.099 201.156 246.19C200.936 246.281 200.7 246.324 200.462 246.317H200.42ZM87.5937 63.5999C87.3839 63.5931 87.175 63.6302 86.9802 63.7086C86.7855 63.7871 86.6093 63.9053 86.4628 64.0557C86.3219 64.2115 86.2141 64.3944 86.1459 64.5931C86.0777 64.7919 86.0506 65.0024 86.0661 65.212L95.2826 244.047C95.3296 244.595 95.5751 245.107 95.9731 245.486C96.371 245.865 96.8939 246.086 97.4432 246.106H200.411C200.62 246.115 200.828 246.078 201.022 246C201.215 245.921 201.39 245.802 201.534 245.651C201.678 245.497 201.788 245.315 201.857 245.115C201.925 244.916 201.95 244.704 201.93 244.494L192.722 65.6593C192.677 65.1123 192.434 64.6007 192.037 64.2212C191.64 63.8418 191.119 63.6208 190.57 63.5999H87.5937Z" fill="white"/>
<path opacity="0.3" d="M164.403 128.567C176.115 116.549 175.352 96.8119 162.7 84.4824C150.048 72.1528 130.297 71.9002 118.586 83.9182C106.874 95.9361 107.637 115.674 120.289 128.003C132.941 140.333 152.692 140.585 164.403 128.567Z" fill="white"/>
<path d="M166.744 106.247C166.98 110.395 166.146 114.533 164.322 118.266C162.347 122.269 159.281 125.633 155.478 127.97C151.675 130.307 147.289 131.522 142.825 131.474C138.199 131.433 133.663 130.194 129.658 127.88C125.653 125.565 122.315 122.253 119.969 118.266C117.783 114.62 116.526 110.493 116.306 106.247C116.098 102.991 116.565 99.7275 117.676 96.66C118.787 93.5925 120.519 90.7873 122.765 88.4201C125.01 86.0529 127.719 84.1747 130.724 82.9028C133.728 81.6309 136.963 80.9928 140.225 81.0285C147.015 81.0993 153.526 83.7403 158.447 88.4198C163.368 93.0992 166.332 99.4693 166.744 106.247V106.247Z" fill="white"/>
<path d="M164.296 118.266C162.322 122.269 159.256 125.633 155.453 127.97C151.649 130.307 147.263 131.522 142.8 131.474C138.174 131.433 133.638 130.194 129.633 127.88C125.628 125.565 122.29 122.253 119.944 118.266C126.358 113.836 133.976 111.48 141.77 111.514C149.773 111.544 157.596 113.889 164.296 118.266V118.266Z" fill="#013D7E"/>
<path d="M149.313 105.661C153.533 101.331 153.256 94.2185 148.696 89.7747C144.136 85.3308 137.019 85.2384 132.799 89.5682C128.58 93.898 128.856 101.01 133.416 105.454C137.977 109.898 145.094 109.991 149.313 105.661Z" fill="#013D7E"/>
<path d="M185.658 180.848H105.031C104.329 180.841 103.655 180.568 103.146 180.084C102.637 179.6 102.33 178.941 102.288 178.24L101.68 166.424C101.659 166.088 101.708 165.752 101.823 165.435C101.938 165.119 102.118 164.829 102.35 164.585C102.582 164.341 102.862 164.148 103.172 164.017C103.482 163.886 103.816 163.821 104.153 163.825H184.78C185.481 163.832 186.154 164.104 186.662 164.586C187.171 165.068 187.479 165.725 187.523 166.424L188.131 178.24C188.153 178.577 188.105 178.915 187.991 179.232C187.876 179.55 187.697 179.84 187.465 180.085C187.233 180.33 186.952 180.524 186.641 180.656C186.33 180.787 185.996 180.853 185.658 180.848V180.848Z" fill="white"/>
<path opacity="0.3" d="M160.971 157.301H127.295C126.59 157.296 125.914 157.022 125.403 156.536C124.892 156.05 124.585 155.388 124.544 154.684L124.417 152.152C124.395 151.816 124.443 151.478 124.558 151.16C124.672 150.843 124.851 150.553 125.084 150.308C125.316 150.063 125.596 149.869 125.907 149.737C126.218 149.606 126.553 149.54 126.89 149.544H160.557C161.26 149.552 161.933 149.825 162.442 150.309C162.951 150.793 163.258 151.451 163.3 152.152L163.435 154.684C163.456 155.021 163.408 155.357 163.293 155.674C163.179 155.991 163.001 156.281 162.77 156.526C162.539 156.771 162.26 156.967 161.951 157.1C161.641 157.233 161.308 157.301 160.971 157.301V157.301Z" fill="black"/>
<path opacity="0.3" d="M173.496 237.658H123.05C121.856 237.643 120.711 237.178 119.845 236.354C118.98 235.531 118.457 234.411 118.383 233.219L118.087 227.395C118.058 226.823 118.145 226.25 118.343 225.713C118.542 225.175 118.848 224.684 119.243 224.268C119.638 223.853 120.113 223.522 120.64 223.296C121.167 223.071 121.734 222.955 122.307 222.956H172.736C173.931 222.97 175.076 223.436 175.941 224.259C176.807 225.083 177.329 226.203 177.404 227.395L177.699 233.219C177.729 233.79 177.642 234.361 177.445 234.897C177.247 235.433 176.942 235.924 176.549 236.339C176.156 236.755 175.683 237.085 175.158 237.312C174.633 237.539 174.068 237.657 173.496 237.658V237.658Z" fill="black"/>
<path d="M187.135 209.426H106.499C105.798 209.417 105.125 209.143 104.617 208.66C104.108 208.176 103.801 207.519 103.756 206.818L103.149 195.002C103.128 194.666 103.176 194.329 103.291 194.012C103.407 193.695 103.586 193.405 103.818 193.16C104.05 192.916 104.329 192.721 104.64 192.59C104.95 192.458 105.284 192.391 105.621 192.394H186.249C186.951 192.402 187.624 192.675 188.133 193.159C188.642 193.642 188.949 194.301 188.992 195.002L189.608 206.818C189.627 207.154 189.578 207.491 189.462 207.807C189.347 208.124 189.168 208.413 188.936 208.657C188.704 208.902 188.425 209.096 188.115 209.228C187.805 209.361 187.472 209.428 187.135 209.426V209.426Z" fill="white"/>
<path d="M115.26 172.332C115.283 172.705 115.229 173.079 115.102 173.43C114.974 173.782 114.775 174.103 114.518 174.374C114.26 174.644 113.95 174.859 113.605 175.005C113.261 175.15 112.891 175.223 112.517 175.219C111.741 175.21 110.997 174.907 110.435 174.371C109.872 173.836 109.534 173.107 109.487 172.332C109.463 171.96 109.515 171.586 109.642 171.235C109.769 170.884 109.967 170.563 110.224 170.292C110.48 170.021 110.79 169.806 111.134 169.66C111.478 169.515 111.848 169.442 112.222 169.446C112.999 169.455 113.744 169.758 114.307 170.293C114.871 170.828 115.211 171.557 115.26 172.332V172.332Z" fill="#263238"/>
<path d="M124.147 172.332C124.172 172.705 124.119 173.079 123.992 173.43C123.865 173.781 123.667 174.102 123.411 174.373C123.154 174.644 122.844 174.859 122.5 175.005C122.156 175.15 121.786 175.223 121.413 175.219C120.636 175.212 119.891 174.909 119.328 174.374C118.766 173.838 118.428 173.108 118.383 172.332C118.358 171.96 118.411 171.586 118.538 171.235C118.665 170.884 118.863 170.563 119.119 170.292C119.376 170.021 119.686 169.806 120.03 169.66C120.374 169.515 120.744 169.442 121.117 169.446C121.894 169.453 122.639 169.755 123.202 170.291C123.764 170.827 124.102 171.557 124.147 172.332V172.332Z" fill="#263238"/>
<path d="M132.984 172.332C133.008 172.705 132.956 173.079 132.829 173.43C132.702 173.781 132.504 174.102 132.247 174.373C131.991 174.644 131.681 174.859 131.337 175.005C130.993 175.15 130.623 175.223 130.249 175.219C129.472 175.21 128.727 174.907 128.164 174.372C127.6 173.837 127.26 173.108 127.211 172.332C127.188 171.959 127.242 171.586 127.369 171.235C127.497 170.883 127.696 170.562 127.953 170.291C128.211 170.02 128.521 169.806 128.866 169.66C129.21 169.515 129.58 169.442 129.954 169.446C130.73 169.455 131.474 169.758 132.037 170.294C132.599 170.829 132.937 171.558 132.984 172.332Z" fill="#263238"/>
<path d="M141.888 172.332C141.911 172.705 141.858 173.078 141.73 173.428C141.603 173.779 141.405 174.1 141.149 174.37C140.892 174.641 140.583 174.856 140.239 175.002C139.896 175.148 139.527 175.222 139.154 175.219C138.376 175.21 137.631 174.907 137.068 174.372C136.504 173.837 136.164 173.108 136.115 172.332C136.092 171.96 136.146 171.587 136.273 171.237C136.4 170.886 136.598 170.565 136.855 170.294C137.111 170.024 137.421 169.809 137.764 169.663C138.107 169.517 138.477 169.443 138.85 169.446C139.627 169.455 140.372 169.758 140.935 170.293C141.499 170.828 141.839 171.557 141.888 172.332V172.332Z" fill="#263238"/>
<path d="M116.754 200.893C116.778 201.266 116.725 201.64 116.599 201.991C116.472 202.342 116.274 202.663 116.017 202.934C115.76 203.205 115.45 203.42 115.107 203.566C114.763 203.711 114.393 203.784 114.019 203.78C113.242 203.771 112.497 203.468 111.934 202.933C111.37 202.398 111.03 201.669 110.981 200.893C110.958 200.52 111.012 200.147 111.139 199.795C111.267 199.444 111.466 199.123 111.723 198.852C111.981 198.581 112.291 198.367 112.635 198.221C112.98 198.076 113.35 198.003 113.724 198.007C114.5 198.016 115.244 198.319 115.806 198.854C116.368 199.39 116.707 200.118 116.754 200.893Z" fill="#263238"/>
<path d="M125.624 200.893C125.647 201.266 125.594 201.639 125.466 201.989C125.339 202.34 125.141 202.661 124.885 202.931C124.628 203.202 124.319 203.417 123.975 203.563C123.632 203.709 123.263 203.783 122.89 203.78C122.112 203.771 121.367 203.468 120.804 202.933C120.241 202.398 119.9 201.669 119.851 200.893C119.827 200.521 119.88 200.147 120.006 199.796C120.133 199.445 120.331 199.124 120.588 198.853C120.845 198.582 121.155 198.367 121.499 198.221C121.842 198.076 122.213 198.003 122.586 198.007C123.363 198.016 124.108 198.319 124.671 198.854C125.235 199.389 125.575 200.118 125.624 200.893Z" fill="#263238"/>
<path d="M134.495 200.893C134.518 201.266 134.464 201.64 134.336 201.991C134.209 202.342 134.01 202.664 133.752 202.934C133.495 203.205 133.184 203.42 132.84 203.566C132.496 203.711 132.125 203.784 131.752 203.78C130.975 203.773 130.23 203.47 129.667 202.935C129.105 202.399 128.767 201.669 128.722 200.893C128.697 200.521 128.75 200.147 128.877 199.796C129.004 199.445 129.202 199.124 129.458 198.853C129.715 198.582 130.025 198.367 130.369 198.221C130.713 198.076 131.083 198.003 131.456 198.007C132.233 198.016 132.979 198.319 133.542 198.854C134.105 199.389 134.446 200.118 134.495 200.893Z" fill="#263238"/>
<path d="M143.357 200.893C143.381 201.266 143.328 201.64 143.202 201.991C143.075 202.342 142.877 202.663 142.62 202.934C142.363 203.205 142.053 203.42 141.709 203.566C141.366 203.711 140.995 203.784 140.622 203.78C139.845 203.771 139.1 203.468 138.536 202.933C137.973 202.398 137.633 201.669 137.584 200.893C137.561 200.52 137.614 200.147 137.742 199.795C137.87 199.444 138.069 199.123 138.326 198.852C138.584 198.581 138.894 198.367 139.238 198.221C139.583 198.076 139.953 198.003 140.327 198.007C141.104 198.014 141.849 198.316 142.411 198.852C142.974 199.388 143.312 200.118 143.357 200.893Z" fill="#263238"/>
<path d="M152.227 200.893C152.252 201.266 152.199 201.64 152.072 201.991C151.945 202.342 151.747 202.663 151.491 202.934C151.234 203.205 150.924 203.42 150.58 203.566C150.236 203.711 149.866 203.784 149.493 203.78C148.715 203.771 147.97 203.468 147.407 202.933C146.843 202.398 146.503 201.669 146.454 200.893C146.431 200.521 146.485 200.148 146.612 199.797C146.739 199.447 146.937 199.126 147.194 198.855C147.45 198.585 147.76 198.37 148.103 198.224C148.446 198.078 148.816 198.004 149.189 198.007C149.966 198.016 150.711 198.319 151.274 198.854C151.838 199.389 152.178 200.118 152.227 200.893Z" fill="#263238"/>
<path d="M161.098 200.893C161.121 201.266 161.067 201.64 160.939 201.991C160.811 202.342 160.613 202.664 160.355 202.934C160.098 203.205 159.787 203.42 159.443 203.566C159.099 203.711 158.728 203.784 158.355 203.78C157.578 203.771 156.834 203.468 156.272 202.932C155.71 202.397 155.372 201.668 155.325 200.893C155.3 200.521 155.353 200.147 155.48 199.796C155.607 199.445 155.805 199.124 156.061 198.853C156.318 198.582 156.628 198.367 156.972 198.221C157.316 198.076 157.686 198.003 158.059 198.007C158.836 198.016 159.581 198.319 160.145 198.854C160.708 199.389 161.049 200.118 161.098 200.893V200.893Z" fill="#263238"/>
<path d="M257.052 102.88C257.263 103.2 257.373 103.369 257.508 103.597L257.888 104.222C258.132 104.644 258.352 105.066 258.563 105.479C258.985 106.323 259.407 107.167 259.744 108.011C260.452 109.687 261.061 111.404 261.567 113.151C262.589 116.603 263.262 120.149 263.576 123.735L263.635 124.402C263.642 124.537 263.642 124.672 263.635 124.807V125.254C263.649 125.841 263.615 126.428 263.534 127.01C263.372 128.087 263.089 129.143 262.69 130.158C261.948 131.969 260.966 133.673 259.77 135.222C257.538 138.08 254.889 140.586 251.912 142.657L249.583 139.931C251.702 137.537 253.58 134.939 255.187 132.175C255.91 130.921 256.477 129.583 256.875 128.191C257.036 127.602 257.129 126.996 257.153 126.385C257.179 126.124 257.179 125.861 257.153 125.6V125.423C257.162 125.344 257.162 125.265 257.153 125.187L257.052 124.596C256.509 121.45 255.742 118.348 254.756 115.312C254.267 113.801 253.668 112.341 253.068 110.915C252.773 110.197 252.435 109.497 252.098 108.821L251.574 107.825L251.313 107.361L251.093 106.99L257.052 102.88Z" fill="#803E3C"/>
<path d="M249.203 142.674L252.258 149.131L254.68 143.67C254.68 143.67 252.528 138.944 249.616 139.383L249.203 142.674Z" fill="#7F3E3B"/>
<path d="M254.444 149.452L256.875 145.468L254.68 143.67L252.258 149.131L254.444 149.452Z" fill="#7F3E3B"/>
<path d="M240.704 298.35C241.336 298.334 241.964 298.249 242.577 298.097C242.609 298.087 242.637 298.07 242.659 298.046C242.681 298.023 242.697 297.993 242.704 297.962C242.709 297.929 242.705 297.896 242.691 297.866C242.678 297.836 242.656 297.811 242.628 297.793C242.383 297.633 240.24 296.248 239.412 296.62C239.321 296.663 239.242 296.729 239.184 296.812C239.126 296.895 239.092 296.992 239.083 297.092C239.058 297.245 239.07 297.402 239.118 297.549C239.167 297.696 239.25 297.829 239.362 297.936C239.744 298.232 240.221 298.379 240.704 298.35V298.35ZM242.096 297.852C240.873 298.105 239.944 298.063 239.564 297.734C239.487 297.657 239.43 297.562 239.399 297.457C239.368 297.352 239.364 297.241 239.387 297.135C239.387 296.991 239.472 296.949 239.531 296.924C239.986 296.721 241.227 297.32 242.096 297.852V297.852Z" fill="#013D7E"/>
<path d="M242.535 298.097H242.62C242.645 298.08 242.666 298.058 242.681 298.031C242.695 298.005 242.703 297.975 242.704 297.945C242.704 297.86 242.704 295.826 241.928 295.143C241.832 295.057 241.72 294.993 241.597 294.955C241.475 294.917 241.346 294.907 241.219 294.923C241.085 294.924 240.957 294.971 240.854 295.056C240.751 295.14 240.68 295.257 240.653 295.388C240.493 296.189 241.776 297.709 242.451 298.097H242.535ZM241.328 295.236C241.397 295.234 241.465 295.245 241.528 295.27C241.592 295.295 241.65 295.332 241.7 295.379C242.145 296.036 242.375 296.814 242.358 297.607C241.683 297.067 240.881 295.919 240.982 295.438C240.982 295.362 241.041 295.261 241.252 295.236H241.328Z" fill="#013D7E"/>
<path d="M232.736 294.907C232.756 294.882 232.769 294.852 232.773 294.821C232.778 294.789 232.774 294.757 232.762 294.728C232.75 294.699 232.73 294.673 232.705 294.654C232.68 294.635 232.65 294.623 232.618 294.62C232.272 294.62 229.242 294.476 228.55 295.219V295.269C228.493 295.342 228.456 295.429 228.442 295.521C228.429 295.613 228.44 295.706 228.474 295.793C228.519 295.938 228.599 296.069 228.706 296.177C228.813 296.284 228.945 296.364 229.09 296.409C230.069 296.713 231.799 295.607 232.745 294.923L232.736 294.907ZM228.803 295.438C229.183 295.033 230.854 294.923 232.103 294.94C230.795 295.835 229.706 296.257 229.158 296.088C229.062 296.059 228.975 296.007 228.904 295.936C228.834 295.866 228.782 295.779 228.753 295.683C228.736 295.65 228.727 295.614 228.727 295.577C228.727 295.541 228.736 295.505 228.753 295.472L228.803 295.438Z" fill="#013D7E"/>
<path d="M232.736 294.907C232.749 294.88 232.756 294.851 232.756 294.822C232.756 294.793 232.749 294.764 232.736 294.738C232.694 294.67 231.749 293.05 230.635 292.712C230.475 292.665 230.307 292.652 230.142 292.672C229.976 292.692 229.817 292.746 229.673 292.83C229.268 293.067 229.242 293.345 229.293 293.522C229.512 294.307 231.665 294.999 232.593 294.991C232.622 294.99 232.651 294.982 232.676 294.968C232.701 294.953 232.722 294.932 232.736 294.907ZM229.706 293.219C229.754 293.172 229.808 293.132 229.867 293.1C229.971 293.034 230.088 292.991 230.211 292.975C230.333 292.959 230.458 292.97 230.576 293.008C231.31 293.202 231.994 294.147 232.306 294.611C231.302 294.501 229.774 293.885 229.647 293.413C229.637 293.377 229.636 293.339 229.647 293.303C229.657 293.267 229.678 293.235 229.706 293.21V293.219Z" fill="#013D7E"/>
<path d="M242.029 78.1589C241.185 82.3789 239.362 91.5025 242.291 94.3046C242.291 94.3046 241.143 98.5246 233.353 98.5246C224.778 98.5246 229.259 94.3046 229.259 94.3046C233.935 93.1905 233.817 89.7133 232.998 86.4554L242.029 78.1589Z" fill="#7F3E3B"/>
<path d="M227.748 68.2672C227.796 68.2749 227.844 68.2749 227.892 68.2672C227.932 68.2475 227.968 68.22 227.997 68.1863C228.026 68.1526 228.049 68.1135 228.063 68.0711C228.077 68.0287 228.083 67.9839 228.079 67.9393C228.076 67.8948 228.064 67.8513 228.044 67.8114C227.817 67.33 227.478 66.9101 227.055 66.587C226.632 66.2639 226.137 66.047 225.613 65.9546C225.525 65.9473 225.438 65.9738 225.369 66.0287C225.3 66.0836 225.254 66.1628 225.242 66.25C225.232 66.3384 225.258 66.4269 225.313 66.4964C225.368 66.5659 225.449 66.6108 225.537 66.6214V66.6214C225.951 66.7008 226.34 66.8778 226.672 67.1376C227.003 67.3974 227.268 67.7326 227.445 68.1153C227.477 68.1652 227.523 68.2056 227.576 68.2322C227.629 68.2589 227.689 68.271 227.748 68.2672Z" fill="#263238"/>
<path d="M225.191 71.9724C224.527 73.2044 223.698 74.3402 222.727 75.3484C222.989 75.5889 223.301 75.7693 223.641 75.8772C223.981 75.985 224.34 76.0177 224.693 75.9729L225.191 71.9724Z" fill="#630F0F"/>
<path d="M225.824 71.0186C225.756 71.5841 225.394 72.0061 225.031 71.9639C224.668 71.9217 224.414 71.4238 224.482 70.8583C224.55 70.2928 224.912 69.8708 225.326 69.913C225.74 69.9552 225.883 70.4532 225.824 71.0186Z" fill="#263238"/>
<path d="M225.436 69.9636L224.136 69.4404C224.136 69.4404 224.685 70.5544 225.436 69.9636Z" fill="#263238"/>
<path d="M240.189 293.303L233.302 294.907L229.116 279.073L236.003 277.469L240.189 293.303Z" fill="#7F3E3B"/>
<path d="M250.756 297.928H243.692L244.24 281.563H251.313L250.756 297.928Z" fill="#7F3E3B"/>
<path d="M243.126 297.109H251.068C251.206 297.108 251.339 297.157 251.443 297.247C251.547 297.337 251.615 297.462 251.633 297.599L252.537 303.878C252.554 304.037 252.538 304.198 252.49 304.35C252.441 304.502 252.36 304.642 252.254 304.761C252.147 304.88 252.016 304.975 251.87 305.039C251.724 305.104 251.565 305.137 251.406 305.136C248.637 305.094 247.304 304.925 243.81 304.925C241.657 304.925 238.518 305.153 235.555 305.153C232.593 305.153 232.424 302.216 233.665 301.954C239.201 300.755 240.079 299.118 241.944 297.548C242.274 297.267 242.693 297.111 243.126 297.109Z" fill="#263238"/>
<path d="M232.694 293.852L239.91 290.535C240.033 290.476 240.173 290.465 240.303 290.502C240.434 290.539 240.546 290.623 240.619 290.737L244.071 296.071C244.152 296.209 244.203 296.361 244.221 296.519C244.239 296.678 244.224 296.838 244.176 296.99C244.128 297.142 244.049 297.282 243.944 297.401C243.839 297.521 243.71 297.617 243.565 297.683C241.033 298.797 239.75 299.211 236.577 300.671C234.627 301.566 230.669 303.625 227.985 304.891C225.301 306.157 223.917 303.532 224.929 302.773C229.462 299.397 230.761 296.974 231.8 294.772C231.975 294.366 232.293 294.038 232.694 293.852V293.852Z" fill="#263238"/>
<path opacity="0.2" d="M229.116 279.073L231.361 287.564L238.163 285.631L236.011 277.469L229.116 279.073Z" fill="black"/>
<path opacity="0.2" d="M251.313 281.563H244.24L243.962 290.003H251.034L251.313 281.563Z" fill="black"/>
<path d="M254.52 95.9082C257.457 96.5581 260.597 107.117 260.597 107.117L252.292 115.953C252.292 115.953 245.396 106.028 246.806 102.382C248.232 98.5752 251.017 95.1486 254.52 95.9082Z" fill="#263238"/>
<path opacity="0.4" d="M249.827 102.635C248.342 101.276 247.338 101.681 246.654 102.762C245.979 105.901 249.979 112.476 251.591 114.966C252.334 111.995 253.186 105.732 249.827 102.635Z" fill="black"/>
<path d="M217.308 96.1192C217.308 96.1192 213.932 97.3008 220.684 138.783H249.38C248.899 127.102 248.882 119.895 254.444 95.9082C250.423 95.0786 246.347 94.5426 242.248 94.3046C237.91 93.992 233.555 93.992 229.217 94.3046C223.655 94.8194 217.308 96.1192 217.308 96.1192Z" fill="#263238"/>
<path opacity="0.4" d="M217.046 112.037C217.232 114.054 217.477 116.325 217.798 118.89C220.152 116.772 222.077 110.746 221.368 107.235C219.685 108.6 218.227 110.221 217.046 112.037Z" fill="black"/>
<path d="M220.119 105.732C218.57 109.63 216.826 113.447 214.894 117.169C212.984 121.025 210.724 124.698 208.142 128.141L207.602 128.807L207.332 129.136C207.239 129.246 207.163 129.347 207.02 129.499C206.512 130.054 205.946 130.552 205.332 130.985C204.246 131.736 203.058 132.328 201.804 132.74C199.617 133.439 197.346 133.842 195.052 133.939C190.756 134.11 186.455 133.727 182.257 132.799L182.721 129.255C184.662 129.255 186.696 129.255 188.629 129.094C190.57 128.999 192.504 128.785 194.419 128.453C196.197 128.175 197.937 127.688 199.601 127.001C200.273 126.714 200.901 126.333 201.466 125.87C201.682 125.69 201.877 125.486 202.049 125.263C202.049 125.263 202.15 125.127 202.217 125.035L202.411 124.756L202.808 124.199C204.926 120.928 206.813 117.513 208.454 113.978C210.142 110.391 211.83 106.669 213.375 103.006L220.119 105.732Z" fill="#803E3C"/>
<path d="M217.308 96.1192C213.789 96.9632 209.467 106.619 209.467 106.619L216.759 117.337C216.759 117.337 226.474 105.108 225.318 101.377C224.136 97.4865 221.604 95.0726 217.308 96.1192Z" fill="#263238"/>
<path d="M184.747 129.795L178.661 126.984L178.054 133.036C178.054 133.036 183.118 134.53 185.65 133.036L184.747 129.795Z" fill="#7F3E3B"/>
<path d="M175.024 126.377L174.441 130.985L178.054 133.036L178.661 126.984L175.024 126.377Z" fill="#7F3E3B"/>
<path d="M245.084 71.4322C243.793 78.3277 243.396 81.2817 239.446 84.4129C233.538 89.1224 225.309 86.0334 224.516 78.8932C223.79 72.4619 226.018 62.2664 233.167 60.3252C234.742 59.8907 236.401 59.8669 237.988 60.256C239.574 60.6451 241.035 61.4342 242.23 62.548C243.425 63.6617 244.314 65.063 244.814 66.6183C245.314 68.1735 245.407 69.8308 245.084 71.4322V71.4322Z" fill="#7F3E3B"/>
<path d="M229.934 72.8839C229.538 76.4034 229.386 85.5439 237.117 85.8308C246.578 86.1769 249.414 78.0914 248.57 74.8588C253.499 70.8498 254.208 63.9544 248.671 58.6794C243.135 53.4044 230.947 56.3499 227.571 61.4899C223.292 67.8621 229.934 72.8839 229.934 72.8839Z" fill="#263238"/>
<path d="M239.412 60.7303C238.957 57.0167 239.311 54.4594 242.788 54.4594C246.266 54.4594 251.009 55.7169 252.748 59.2702C254.486 62.8234 254.63 68.3854 249.777 67.8199C244.924 67.2544 239.961 65.1697 239.412 60.7303Z" fill="#013D7E"/>
<path d="M244.797 59.8357C243.953 55.4131 247.911 42.9557 257.525 42.1117C261.981 41.7319 264.04 46.5258 261.745 47.3191C265.965 47.2685 268.665 52.8473 264.732 53.6829C267.838 55.6747 267.07 59.7597 262.639 61.7684C259.339 63.2876 245.936 65.9631 244.797 59.8357Z" fill="#263238"/>
<path d="M255.069 64.5874C251.971 64.5874 248.739 64.1316 246.73 62.7897C246.168 62.4511 245.695 61.9836 245.35 61.4258C245.005 60.8681 244.798 60.2362 244.746 59.5825C244.744 59.527 244.763 59.4726 244.799 59.4303C244.835 59.388 244.885 59.3609 244.941 59.3546C244.968 59.351 244.997 59.3534 245.024 59.3614C245.051 59.3695 245.076 59.3831 245.097 59.4013C245.119 59.4196 245.136 59.4421 245.148 59.4675C245.161 59.4929 245.167 59.5205 245.168 59.5487C245.219 60.1386 245.409 60.7082 245.721 61.2112C246.033 61.7143 246.46 62.1365 246.966 62.4436C250.789 64.9756 259.626 64.1316 262.378 63.2876C264.758 62.5111 266.37 61.0004 266.69 59.2617C266.79 58.6237 266.712 57.9705 266.463 57.3745C266.214 56.7786 265.805 56.2633 265.281 55.8857C265.261 55.8668 265.245 55.8439 265.234 55.8185C265.223 55.7931 265.217 55.7657 265.217 55.738C265.217 55.7104 265.223 55.683 265.234 55.6576C265.245 55.6322 265.261 55.6093 265.281 55.5903C265.32 55.5517 265.373 55.53 265.429 55.53C265.484 55.53 265.537 55.5517 265.576 55.5903C266.165 56.0202 266.624 56.6054 266.899 57.2806C267.175 57.9557 267.258 58.6943 267.138 59.4137C266.792 61.3127 265.078 62.9331 262.546 63.7603C260.103 64.3761 257.587 64.6544 255.069 64.5874V64.5874Z" fill="#263238"/>
<path d="M227.782 71.9724C226.996 73.0748 226.672 74.4408 226.879 75.7788C227.158 77.5512 228.879 77.6694 230.128 76.5384C231.378 75.4075 232.466 73.365 231.546 71.8964C231.342 71.5792 231.06 71.3196 230.726 71.1423C230.393 70.9649 230.02 70.8759 229.643 70.8835C229.266 70.8911 228.897 70.9951 228.571 71.1857C228.245 71.3763 227.974 71.6472 227.782 71.9724Z" fill="#7F3E3B"/>
<path d="M228.263 138.783C228.263 138.783 232.365 187.305 236.627 214.651C240.062 236.738 242.78 288.366 242.78 288.366H252.418C252.418 288.366 255.845 238.283 254.106 216.44C249.692 161.158 259.542 156.651 249.405 138.792L228.263 138.783Z" fill="#013D7E"/>
<path opacity="0.4" d="M240.4 157.124C236.58 161.133 233.497 165.784 231.293 170.864C232.416 181.768 233.749 193.871 235.167 204.472C240.985 189.409 242.789 173.093 240.4 157.124V157.124Z" fill="black"/>
<path d="M221.52 138.48C221.52 138.48 212.615 191.474 211.214 215.36C214.709 237.447 229.006 284.137 229.006 284.137L237.775 280.955C237.775 280.955 232.922 230.045 227.647 216.111C239.522 176.13 248.249 166.019 245.709 138.783C239.623 138.783 221.52 138.48 221.52 138.48Z" fill="#013D7E"/>
<path d="M227.833 286.467L239.683 283.251L239.007 278.524L226.322 281.96L227.833 286.467Z" fill="#263238"/>
<path d="M241.455 288.56H253.735L254.376 284.255L241.387 283.816L241.455 288.56Z" fill="#263238"/>
<path d="M249.827 137.095L251.119 139.67C251.22 139.872 250.984 140.075 250.655 140.075H220.541C220.287 140.075 220.068 139.948 220.051 139.779L219.789 137.247C219.789 137.07 220 136.918 220.279 136.918H249.355C249.442 136.906 249.531 136.916 249.613 136.947C249.696 136.978 249.769 137.029 249.827 137.095V137.095Z" fill="#013D7E"/>
<path opacity="0.5" d="M249.827 137.095L251.119 139.67C251.22 139.872 250.984 140.075 250.655 140.075H220.541C220.287 140.075 220.068 139.948 220.051 139.779L219.789 137.247C219.789 137.07 220 136.918 220.279 136.918H249.355C249.442 136.906 249.531 136.916 249.613 136.947C249.696 136.978 249.769 137.029 249.827 137.095V137.095Z" fill="black"/>
<path d="M245.92 140.336H246.696C246.856 140.336 246.975 140.252 246.966 140.159L246.595 136.783C246.595 136.682 246.451 136.606 246.299 136.606H245.515C245.363 136.606 245.244 136.682 245.253 136.783L245.616 140.159C245.633 140.269 245.768 140.336 245.92 140.336Z" fill="#013D7E"/>
<path d="M235.471 115.759C235.378 115.758 235.288 115.727 235.213 115.67C235.139 115.614 235.084 115.536 235.057 115.447C232.306 105.268 226.617 96.8788 223.858 95.6128C223.643 95.4811 223.385 95.4387 223.14 95.4946C223.089 95.5215 223.033 95.5376 222.976 95.5421C222.918 95.5465 222.861 95.5391 222.806 95.5204C222.752 95.5016 222.702 95.4719 222.659 95.4331C222.616 95.3943 222.582 95.3472 222.559 95.2947C222.535 95.2421 222.522 95.1853 222.521 95.1277C222.521 95.0701 222.531 95.0129 222.554 94.9597C222.576 94.9065 222.608 94.8584 222.65 94.8183C222.691 94.7782 222.74 94.747 222.794 94.7266C223.025 94.6419 223.271 94.6086 223.516 94.629C223.761 94.6494 223.998 94.723 224.212 94.8448C227.132 96.2289 232.905 104.5 235.792 114.907C237.859 114.907 241.05 114.628 241.826 114.561C242.788 113.413 249.861 104.568 247.219 94.887C247.204 94.8338 247.2 94.778 247.206 94.7231C247.213 94.6681 247.231 94.6151 247.258 94.5671C247.286 94.519 247.323 94.4771 247.367 94.4436C247.411 94.4101 247.461 94.3858 247.515 94.3721C247.622 94.3436 247.737 94.3587 247.833 94.414C247.929 94.4693 248 94.5604 248.03 94.6675C250.975 105.437 242.434 115.151 242.341 115.244C242.308 115.285 242.267 115.319 242.221 115.344C242.174 115.368 242.123 115.383 242.071 115.388C242.029 115.388 237.817 115.759 235.471 115.759Z" fill="#013D7E"/>
<path d="M249.456 121.718C244.856 113.1 242.974 112.493 242.155 109.724C242.776 108.176 243.661 106.748 244.772 105.504C244.215 105.344 243.016 105.108 242.24 104.964C242.324 104.585 242.417 104.213 242.501 103.85C241.656 103.756 240.802 103.796 239.969 103.968V103.124C238.897 102.891 237.796 102.82 236.703 102.913C236.799 103.313 236.892 103.718 236.982 104.129C236.138 104.289 234.855 104.551 234.239 104.728C235.436 106.084 236.315 107.69 236.813 109.429C234.331 113.691 224.693 141.088 240.374 143.189C256.056 145.291 254.047 130.343 249.456 121.718Z" fill="#013D7E"/>
<path opacity="0.4" d="M249.456 121.718C244.856 113.1 242.974 112.493 242.155 109.724C242.776 108.176 243.661 106.748 244.772 105.504C244.215 105.344 243.016 105.108 242.24 104.964C242.324 104.585 242.417 104.213 242.501 103.85C241.656 103.756 240.802 103.796 239.969 103.968V103.124C238.897 102.891 237.796 102.82 236.703 102.913C236.799 103.313 236.892 103.718 236.982 104.129C236.138 104.289 234.855 104.551 234.239 104.728C235.436 106.084 236.315 107.69 236.813 109.429C234.331 113.691 224.693 141.088 240.374 143.189C256.056 145.291 254.047 130.343 249.456 121.718Z" fill="white"/>
<path d="M236.171 108.61C236.074 109.045 236.031 109.49 236.045 109.935C236.045 110.248 236.889 110.459 237.826 110.552C238.763 110.644 242.696 110.796 242.569 110.357C242.442 109.919 242.763 109.319 242.78 108.948C242.797 108.577 241.219 108.56 239.893 108.61C238.568 108.661 236.433 108.138 236.171 108.61Z" fill="#013D7E"/>
<path d="M227.048 140.336H227.824C227.976 140.336 228.094 140.252 228.086 140.159L227.723 136.783C227.723 136.682 227.579 136.606 227.419 136.606H226.668C226.516 136.606 226.398 136.682 226.406 136.783L226.769 140.159C226.752 140.269 226.887 140.336 227.048 140.336Z" fill="#013D7E"/>
</svg>
